<?xml version="1.0" encoding="utf-8"?>
<!-- Generator: Adobe Illustrator 26.0.3, SVG Export Plug-In . SVG Version: 6.00 Build 0)  -->
<svg version="1.1" id="Layer_1" xmlns="http://www.w3.org/2000/svg" xmlns:xlink="http://www.w3.org/1999/xlink" x="0px" y="0px"
	 viewBox="0 0 273 126" style="enable-background:new 0 0 273 126;" xml:space="preserve">
<style type="text/css">
	.st0{fill:#3AB5FB;}
	.st1{fill:#FBAC3D;}
	.st2{fill:#3368FA;}
	.st3{fill:#F35830;}
</style>
<g>
	<path class="st0" d="M78,33.4l-10,7l-1.8-2.6c-1.8-2.9-5.6-3.7-8.4-1.9s-3.7,5.6-1.9,8.4c0.1,0.2,0.2,0.3,0.3,0.5l1.8,2.6
		l-10.1,6.9l-7-10.1l-2.7,1.9c-2.7,2.1-6.5,1.6-8.6-1.1c-2.1-2.7-1.6-6.5,1.1-8.6c0.2-0.1,0.3-0.2,0.5-0.3l2.7-1.9l-7-10.1L57,3.3
		L78,33.4z"/>
	<path class="st1" d="M49.5,82.6L47,80.4l8-9.2l-9.2-8l-2.1,2.4c-2,2.7-5.9,3.3-8.6,1.2c-2.7-2-3.3-5.9-1.2-8.6
		c0.2-0.2,0.4-0.5,0.6-0.7l2.1-2.4l-9.2-8l-8,9.2l-2.5-2.2c-2.6-2.2-6.4-1.9-8.6,0.6s-1.9,6.4,0.6,8.6l0,0l2.5,2.1l-8,9.2l27.6,24
		l8-9.2l2.5,2.2c2.4,2.4,6.3,2.4,8.7,0s2.4-6.3,0-8.7C49.8,82.9,49.6,82.7,49.5,82.6L49.5,82.6z"/>
	<path class="st2" d="M30.9,98.7l8-9.2l2.4,2.1c2.4,2.4,6.3,2.4,8.7,0s2.4-6.3,0-8.7c-0.2-0.2-0.4-0.4-0.7-0.6l-2.4-2.1l8-9.2l9.2,8
		l2.3-2.6c2.4-2.4,6.3-2.4,8.7,0c2.1,2.2,2.4,5.5,0.6,8l-2.2,2.5l9.2,8l-24.1,27.7L30.9,98.7z"/>
	<path class="st3" d="M82.6,95.2l-9.2-8l2.1-2.4c2-2.7,1.5-6.5-1.2-8.6c-2.4-1.9-5.9-1.6-8.1,0.6l-2.1,2.4l-9.2-8l8-9.2l-2.5-2.2
		c-2.4-2.4-2.4-6.2-0.1-8.7c2.2-2.2,5.6-2.4,8.1-0.6l2.5,2.2l8-9.2l27.7,24.1L82.6,95.2z"/>
	<path d="M137.6,80.4h-12.5l-2,6.3h-9.3l12.8-36.5h9.5L149,86.7h-9.3L137.6,80.4z M135.3,73.2L131.4,61l-3.9,12.1L135.3,73.2
		L135.3,73.2z"/>
	<path d="M167.2,68.3c-1.3-0.8-2.8-1.2-4.4-1.3c-0.6,0-1.3,0.1-1.8,0.5c-0.4,0.3-0.7,0.8-0.7,1.3c0,0.2,0,0.5,0.1,0.7
		s0.3,0.4,0.5,0.5c0.3,0.2,0.7,0.3,1.1,0.4l1.9,0.5c1.9,0.3,3.7,1.2,5,2.6c1.1,1.3,1.7,3,1.6,4.8c0,1.3-0.3,2.7-0.8,3.9
		c-0.5,1.1-1.3,2.1-2.2,2.9c-1,0.8-2.2,1.4-3.4,1.8c-1.4,0.4-2.9,0.7-4.4,0.6c-3.3-0.1-6.4-1-9.1-2.9l2.9-6.2
		c1.8,1.5,4.1,2.4,6.4,2.5c0.7,0,1.3-0.2,1.8-0.5c0.4-0.3,0.7-0.8,0.7-1.4c0-0.3,0-0.5-0.1-0.8c-0.1-0.2-0.3-0.4-0.5-0.6
		c-0.3-0.2-0.6-0.4-1-0.5c-0.5-0.1-1.1-0.3-1.8-0.5c-2.5-0.6-4.2-1.4-5.2-2.4c-1.1-1.2-1.6-2.9-1.5-4.5c0-1.3,0.2-2.6,0.7-3.8
		c0.5-1.1,1.2-2.1,2.1-2.8c0.9-0.8,2-1.4,3.2-1.8c1.4-0.4,2.8-0.6,4.2-0.6c2.5,0,5,0.6,7.3,1.6L167.2,68.3z"/>
	<path d="M173.9,68.5c0-2.6,0.4-5.2,1.4-7.6c0.9-2.3,2.2-4.3,3.8-6.1s3.6-3.1,5.9-4.1c4.8-2,10.2-2,15,0c2.2,0.9,4.2,2.3,5.9,4.1
		s3,3.8,3.9,6.1c1.8,4.9,1.8,10.3,0,15.2c-0.9,2.3-2.2,4.3-3.9,6.1c-1.7,1.8-3.7,3.1-5.9,4.1c-4.8,2-10.2,2-15,0
		c-2.2-0.9-4.2-2.3-5.9-4.1c-1.7-1.8-3-3.9-3.8-6.1C174.4,73.6,173.9,71,173.9,68.5z M183.1,68.5c0,1.4,0.2,2.7,0.8,4
		c0.5,1.2,1.1,2.3,2,3.2c0.8,0.9,1.9,1.6,3,2.1c2.3,1,4.9,1,7.3,0c1.1-0.5,2.1-1.2,3-2.1s1.6-2,2.1-3.2c1-2.6,1-5.4,0-8
		c-0.5-1.2-1.2-2.3-2.1-3.2c-0.9-0.9-1.9-1.6-3-2.1c-3.5-1.5-7.6-0.7-10.2,2.1c-0.9,0.9-1.5,2-2,3.2
		C183.3,65.7,183.1,67.1,183.1,68.5z"/>
	<path d="M215.9,61.9h8.1V65c0.9-1.2,2-2.2,3.3-2.9c1.3-0.5,2.6-0.8,4-0.8s2.8,0.3,4.1,0.9c1.1,0.6,2.1,1.4,2.9,2.4
		c0.6,0.8,1.1,1.8,1.3,2.8c0.3,1.2,0.4,2.3,0.4,3.5v15.8h-8.1V74.2c0-1-0.1-2-0.2-3c-0.1-0.7-0.4-1.3-0.9-1.8
		c-0.3-0.4-0.7-0.7-1.2-0.8c-0.5-0.2-0.9-0.2-1.4-0.2c-1.2-0.1-2.4,0.4-3.1,1.3c-0.8,1.1-1.2,2.4-1.1,3.8v13.3h-8.1V61.9z"/>
	<path d="M252.7,75.8c0,3.8,1.6,5.7,4.9,5.7c1.7,0.1,3.2-0.8,4-2.3h7.8c-1.6,5.7-5.5,8.5-11.8,8.5c-1.8,0-3.6-0.3-5.3-0.9
		c-1.5-0.6-3-1.5-4.1-2.7c-1.2-1.2-2.1-2.6-2.6-4.2c-0.6-1.7-1-3.6-0.9-5.4c0-1.9,0.3-3.8,0.9-5.6c0.5-1.6,1.4-3,2.5-4.2
		c1.1-1.2,2.5-2.1,4-2.7c1.7-0.7,3.5-1,5.3-0.9c1.8,0,3.6,0.3,5.2,0.9c1.5,0.6,2.8,1.5,3.9,2.7c1.1,1.3,1.9,2.8,2.5,4.4
		c0.6,1.9,0.9,3.9,0.8,5.8v0.9C269.8,75.8,252.7,75.8,252.7,75.8z M262.2,70.7c-0.2-1.2-0.8-2.2-1.6-3c-1.8-1.5-4.3-1.5-6.1,0
		c-0.8,0.8-1.4,1.9-1.5,3H262.2z"/>
</g>
</svg>
